<?xml version="1.0" standalone="no"?>
<!DOCTYPE svg PUBLIC "-//W3C//DTD SVG 20010904//EN"
 "http://www.w3.org/TR/2001/REC-SVG-20010904/DTD/svg10.dtd">
<svg version="1.0" xmlns="http://www.w3.org/2000/svg"
 width="260.000000pt" height="260.000000pt" viewBox="0 0 260.000000 260.000000"
 preserveAspectRatio="xMidYMid meet">
<metadata>
Created by potrace 1.11, written by Peter Selinger 2001-2013
</metadata>
<g transform="translate(0.000000,260.000000) scale(0.100000,-0.100000)"
fill="#000000" stroke="none">
<path d="M1333 1468 l-281 -283 61 -62 62 -62 223 222 222 222 333 -331 332
-331 123 -1 124 -1 -19 21 c-49 55 -885 888 -891 888 -4 0 -134 -127 -289
-282z"/>
<path d="M436 1204 c-196 -196 -356 -357 -356 -359 0 -2 55 -3 122 -3 l123 1
143 141 c79 77 145 142 146 144 2 1 3 -62 3 -140 l0 -143 107 -1 106 -1 66 65
65 65 56 -54 c31 -30 62 -59 69 -65 9 -8 56 -12 129 -11 l116 0 -58 60 c-32
33 -116 118 -187 189 l-130 129 -80 -80 -81 -81 0 250 c0 138 -1 250 -1 250
-1 0 -162 -160 -358 -356z"/>
</g>
</svg>
